<mxfile host="app.diagrams.net" modified="2020-11-14T03:45:53.220Z" agent="5.0 (Macintosh; Intel Mac OS X 10_15_6) AppleWebKit/537.36 (KHTML, like Gecko) Chrome/86.0.4240.193 Safari/537.36" etag="h-mv6L4ekAHgIHkZ7hKv" version="13.9.6" type="github">
  <diagram id="-vWjyeZ1LDodbXlvv719" name="Page-1">
    <mxGraphModel dx="946" dy="538" grid="1" gridSize="10" guides="1" tooltips="1" connect="1" arrows="1" fold="1" page="1" pageScale="1" pageWidth="827" pageHeight="1169" math="0" shadow="0">
      <root>
        <mxCell id="0" />
        <mxCell id="1" parent="0" />
        <mxCell id="AzWFXw6b3FoRxk-oBnC6-12" value="" style="edgeStyle=orthogonalEdgeStyle;rounded=0;orthogonalLoop=1;jettySize=auto;html=1;sketch=1;" edge="1" parent="1" source="AzWFXw6b3FoRxk-oBnC6-1" target="AzWFXw6b3FoRxk-oBnC6-11">
          <mxGeometry relative="1" as="geometry" />
        </mxCell>
        <mxCell id="AzWFXw6b3FoRxk-oBnC6-1" value="&lt;pre&gt;&lt;font style=&quot;font-size: 14px&quot;&gt;ServiceConfig#doExportUrlsFor1Protocol&lt;/font&gt;&lt;font color=&quot;#a9b7c6&quot; face=&quot;menlo&quot;&gt;&lt;span style=&quot;background-color: rgb(43 , 43 , 43) ; font-size: 13.5pt&quot;&gt;&lt;br&gt;&lt;/span&gt;&lt;/font&gt;&lt;/pre&gt;" style="rounded=1;whiteSpace=wrap;html=1;sketch=1;fillColor=#fff2cc;strokeColor=#d6b656;" vertex="1" parent="1">
          <mxGeometry x="280" y="100" width="376" height="60" as="geometry" />
        </mxCell>
        <mxCell id="AzWFXw6b3FoRxk-oBnC6-2" value="&lt;font style=&quot;font-size: 14px&quot;&gt;将一种协议注册到所有的注册中心&lt;/font&gt;" style="text;html=1;strokeColor=none;fillColor=none;align=center;verticalAlign=middle;whiteSpace=wrap;rounded=0;" vertex="1" parent="1">
          <mxGeometry x="80" y="100" width="160" height="55" as="geometry" />
        </mxCell>
        <mxCell id="AzWFXw6b3FoRxk-oBnC6-15" value="" style="edgeStyle=orthogonalEdgeStyle;rounded=0;orthogonalLoop=1;jettySize=auto;html=1;sketch=1;" edge="1" parent="1" source="AzWFXw6b3FoRxk-oBnC6-6" target="AzWFXw6b3FoRxk-oBnC6-7">
          <mxGeometry relative="1" as="geometry" />
        </mxCell>
        <mxCell id="AzWFXw6b3FoRxk-oBnC6-6" value="&lt;pre&gt;&lt;font style=&quot;font-size: 14px&quot;&gt;RegistryProtocol#export&lt;/font&gt;&lt;font color=&quot;#a9b7c6&quot; face=&quot;menlo&quot;&gt;&lt;span style=&quot;background-color: rgb(43 , 43 , 43) ; font-size: 13.5pt&quot;&gt;&lt;br&gt;&lt;/span&gt;&lt;/font&gt;&lt;/pre&gt;" style="rounded=1;whiteSpace=wrap;html=1;sketch=1;fillColor=#fff2cc;strokeColor=#d6b656;" vertex="1" parent="1">
          <mxGeometry x="280" y="380" width="376" height="60" as="geometry" />
        </mxCell>
        <mxCell id="AzWFXw6b3FoRxk-oBnC6-7" value="1. 启动服务&lt;br&gt;2. 将服务地址注册到注册中心&lt;br&gt;3. 将Invoker包装成Exporter返回" style="ellipse;whiteSpace=wrap;html=1;sketch=1;" vertex="1" parent="1">
          <mxGeometry x="358" y="490" width="220" height="110" as="geometry" />
        </mxCell>
        <mxCell id="AzWFXw6b3FoRxk-oBnC6-13" value="" style="edgeStyle=orthogonalEdgeStyle;rounded=0;orthogonalLoop=1;jettySize=auto;html=1;sketch=1;" edge="1" parent="1" source="AzWFXw6b3FoRxk-oBnC6-11" target="AzWFXw6b3FoRxk-oBnC6-6">
          <mxGeometry relative="1" as="geometry" />
        </mxCell>
        <mxCell id="AzWFXw6b3FoRxk-oBnC6-11" value="给服务生成代理对象Invoker&lt;br&gt;此时Invoker成员变量url中的&lt;br&gt;protocol=registry" style="ellipse;whiteSpace=wrap;html=1;sketch=1;" vertex="1" parent="1">
          <mxGeometry x="378" y="230" width="180" height="90" as="geometry" />
        </mxCell>
        <mxCell id="AzWFXw6b3FoRxk-oBnC6-14" value="&lt;font style=&quot;font-size: 14px&quot;&gt;生成代理对象的方式有两种&lt;br&gt;1.&amp;nbsp;&lt;font&gt;Javassist&lt;/font&gt;&lt;br&gt;2.jdk动态代理&lt;/font&gt;" style="text;html=1;strokeColor=none;fillColor=none;align=center;verticalAlign=middle;whiteSpace=wrap;rounded=0;" vertex="1" parent="1">
          <mxGeometry x="150" y="267.5" width="190" height="15" as="geometry" />
        </mxCell>
        <mxCell id="AzWFXw6b3FoRxk-oBnC6-16" value="&lt;font style=&quot;font-size: 14px&quot;&gt;启动服务和将服务注册到注册中心这部分后面会详细介绍&lt;/font&gt;" style="text;html=1;strokeColor=none;fillColor=none;align=center;verticalAlign=middle;whiteSpace=wrap;rounded=0;sketch=1;" vertex="1" parent="1">
          <mxGeometry x="110" y="500" width="190" height="90" as="geometry" />
        </mxCell>
      </root>
    </mxGraphModel>
  </diagram>
</mxfile>
